<svg xmlns="http://www.w3.org/2000/svg" version="1.1" xmlns:xlink="http://www.w3.org/1999/xlink" width="512" height="512" x="0" y="0" viewBox="0 0 511.999 511.999" style="enable-background:new 0 0 512 512" xml:space="preserve" class=""><g><path d="M359.983 130.296H200.219a7.505 7.505 0 1 0 0 15.01h159.763a7.506 7.506 0 0 0 .001-15.01zM165.297 130.296h-25.306a7.505 7.505 0 1 0 0 15.01h25.306a7.505 7.505 0 1 0 0-15.01zM218.49 360.341h-78.499a7.505 7.505 0 1 0 0 15.01h78.499a7.505 7.505 0 1 0 0-15.01zM249.987 283.66H139.991a7.505 7.505 0 1 0 0 15.01h109.996a7.506 7.506 0 0 0 0-15.01zM303.53 206.977H139.991a7.505 7.505 0 1 0 0 15.01H303.53c4.145.001 7.505-3.359 7.505-7.505s-3.36-7.505-7.505-7.505z" fill="#ca203e" opacity="1" data-original="#ca203e" class=""></path><path d="M445.564 53.51h-310.17c-27.474 0-49.825 22.352-49.825 49.826V398.64H7.504A7.506 7.506 0 0 0 0 406.219c.296 29.8 21.711 52.271 49.813 52.271h311.115c27.474 0 49.825-22.352 49.825-49.826v-90.943a7.505 7.505 0 0 0-7.506-7.504 7.505 7.505 0 0 0-7.505 7.505v90.943c0 19.198-15.618 34.815-34.814 34.815h-.945c-19.629 0-34.591-16.083-34.803-37.409a7.505 7.505 0 0 0-7.505-7.431H100.583V103.335c0-19.198 15.618-34.815 34.814-34.815h274.558c-.22.225-.428.461-.644.691-.262.279-.527.555-.783.839-.271.301-.532.61-.795.918-.253.295-.508.587-.754.888-.255.312-.499.632-.747.95-.24.308-.482.613-.715.927-.238.322-.466.651-.697.979-.227.322-.457.642-.677.969-.221.331-.432.669-.645 1.006-.213.335-.429.667-.634 1.007-.206.342-.4.691-.597 1.038-.197.345-.399.688-.588 1.039-.19.351-.366.71-.547 1.067-.181.356-.367.709-.539 1.069-.173.362-.332.731-.497 1.097-.164.365-.333.727-.488 1.096-.157.373-.299.753-.447 1.13-.146.372-.297.741-.434 1.117-.141.386-.266.779-.397 1.17-.126.376-.259.748-.377 1.128-.124.4-.231.807-.345 1.212-.106.378-.22.753-.318 1.135-.107.42-.197.846-.294 1.27-.085.373-.179.744-.255 1.12-.09.441-.161.887-.239 1.332-.064.368-.138.732-.194 1.102-.072.475-.124.956-.183 1.435-.042.346-.095.688-.13 1.036-.054.536-.087 1.078-.124 1.619-.02.297-.052.592-.067.89a50.923 50.923 0 0 0-.064 2.54V169.948a7.505 7.505 0 1 0 15.01 0V113.36h77.203a7.506 7.506 0 0 0 7.504-7.579c-.296-29.8-21.711-52.271-49.893-52.271zM310.693 413.651c.103.777.223 1.546.356 2.31.044.256.098.507.146.762.095.505.19 1.01.298 1.508.064.299.137.593.205.889.104.449.209.898.324 1.341.08.311.167.619.252.927a48.228 48.228 0 0 0 .654 2.194 53.684 53.684 0 0 0 1.185 3.318c.118.298.235.596.357.891.165.397.337.789.51 1.181.124.281.247.563.376.841.19.41.39.814.589 1.217.124.25.243.502.371.75.244.473.499.938.756 1.402.093.169.182.341.277.508.357.628.726 1.246 1.107 1.854.089.142.184.278.274.419.297.465.598.927.909 1.38.144.209.294.412.44.619.268.378.536.755.814 1.124.167.222.338.438.508.657.268.345.538.689.814 1.025.182.221.367.439.552.657a48.402 48.402 0 0 0 1.42 1.601c.139.15.273.306.414.454H49.812c-17.224 0-30.855-12.385-34.08-29.829h294.961zM411.12 98.348c.003-.051.008-.104.015-.156.034-.229.076-.456.115-.683.054-.32.109-.64.172-.958.048-.242.102-.482.155-.722.066-.298.133-.595.206-.89a36.62 36.62 0 0 1 1.215-3.888c.094-.249.193-.495.293-.742.105-.26.21-.519.322-.776.099-.229.204-.455.308-.681.123-.267.245-.536.374-.799.096-.196.199-.388.299-.582.148-.288.294-.576.45-.859.06-.11.126-.216.187-.325a34.864 34.864 0 0 1 2.286-3.54l.023-.032c.268-.362.545-.717.826-1.069l.133-.169c.275-.34.559-.673.846-1.002l.16-.184c.292-.33.591-.653.896-.972l.15-.157c.316-.326.638-.647.966-.961l.111-.106c.346-.328.698-.65 1.058-.964l.037-.032a34.802 34.802 0 0 1 16.494-7.988l.01-.002a34.097 34.097 0 0 1 1.546-.251l.093-.012a34.99 34.99 0 0 1 1.494-.173c.076-.007.153-.011.23-.017.459-.04.919-.074 1.383-.096.268-.012.538-.014.808-.021.29-.007.579-.02.871-.02 17.224 0 30.855 12.385 34.08 29.829H411.12z" fill="#ca203e" opacity="1" data-original="#ca203e" class=""></path><path d="M511.992 191.831a7.46 7.46 0 0 0-.376-2.292c-.01-.032-.014-.065-.025-.096-.009-.026-.024-.05-.033-.076a7.583 7.583 0 0 0-.414-.955c-.02-.038-.043-.073-.063-.111a7.546 7.546 0 0 0-.491-.778c-.038-.053-.074-.108-.113-.16a7.489 7.489 0 0 0-.64-.738c-.05-.051-.103-.098-.154-.147a7.472 7.472 0 0 0-.684-.584c-.032-.024-.062-.051-.095-.075a7.67 7.67 0 0 0-.851-.531c-.057-.031-.114-.059-.172-.088a7.416 7.416 0 0 0-.938-.404 7.618 7.618 0 0 0-1.219-.3 7.512 7.512 0 0 0-1.036-.107c-62.798-1.625-144.684 13.492-186.083 60.752-18.118 20.683-26.478 46.923-34.562 72.298-.662 2.077-1.323 4.153-1.99 6.226a7.35 7.35 0 0 0-.08.264l-12.684 45.049a7.507 7.507 0 0 0 7.228 9.541 7.51 7.51 0 0 0 7.221-5.474l11.764-41.782c14.381-6.74 25.961-9.892 41.603-14.145 8.114-2.208 17.311-4.708 28.44-8.131 24.06-7.4 70.216-38.36 91.458-61.347 18.578-20.106 34.211-35.048 52.271-49.961.021-.017.037-.038.058-.056a7.51 7.51 0 0 0 .743-.717l.043-.045a7.484 7.484 0 0 0 .727-.981 7.463 7.463 0 0 0 .894-2.049c.087-.326.159-.658.202-1l.003-.041c.028-.232.048-.467.054-.705.003-.086-.005-.17-.006-.254zm-182.095 63.2c17.469-19.943 44.244-34.976 79.582-44.68 9.497-2.608 19.533-4.772 29.876-6.48-26.281 12.745-51.41 28.708-65.453 38.089-22.663 15.14-47.127 33.505-65.193 49.839 5.346-13.542 11.809-26.061 21.188-36.768zm116.082-17.579c-20.674 22.373-65.325 51.183-84.846 57.186-10.894 3.35-19.964 5.818-27.967 7.994-7.241 1.969-13.828 3.763-20.342 5.831 2.914-2.791 6.33-5.92 10.357-9.433 16.206-14.136 37.18-29.971 59.059-44.587 37.882-25.307 72.164-43.071 97.315-50.772-10.923 10.06-21.667 20.892-33.576 33.781z" fill="#ca203e" opacity="1" data-original="#ca203e" class=""></path></g></svg>