<svg xmlns="http://www.w3.org/2000/svg" version="1.1" xmlns:xlink="http://www.w3.org/1999/xlink" width="512" height="512" x="0" y="0" viewBox="0 0 512 512" style="enable-background:new 0 0 512 512" xml:space="preserve" class=""><g><path d="M430.621 159.154c4.188-4.484 6.759-10.497 6.759-17.102 0-11.4-7.648-21.041-18.08-24.079V76.081l3.36-.9c6.276-1.682 10.493-7.176 10.493-13.673s-4.217-11.993-10.493-13.674L264.498 5.453c-7.24-1.941-13.984-1.941-21.221 0L85.114 47.833c-6.276 1.682-10.493 7.177-10.493 13.674s4.217 11.992 10.493 13.673l56.057 15.02v71.343a7 7 0 0 0 3.397 6.001c25.648 15.395 55.52 25.11 86.722 28.258a23.178 23.178 0 0 0 1.907 4.926l-74.142 74.142a24.62 24.62 0 0 0-11.851-3.024c-13.66 0-24.773 11.113-24.773 24.773s11.113 24.774 24.773 24.774c5.052 0 9.753-1.523 13.676-4.13l52.023 43.743a25.493 25.493 0 0 0-2.266 10.52c0 4.327 1.081 8.405 2.981 11.984l-74.685 71.365a28.604 28.604 0 0 0-15.34-4.446c-15.873 0-28.786 12.913-28.786 28.786s12.913 28.786 28.786 28.786 28.786-12.913 28.786-28.786c0-5.17-1.377-10.022-3.773-14.221l74.686-71.366a25.491 25.491 0 0 0 12.999 3.55c14.146 0 25.653-11.508 25.653-25.653s-11.508-25.653-25.653-25.653a25.505 25.505 0 0 0-14.378 4.419l-52.019-43.74a24.629 24.629 0 0 0 2.085-9.932c0-4.29-1.097-8.328-3.024-11.851l74.142-74.142c.546.286 1.103.555 1.673.798l-3.699 38.127c-11.433 2.192-20.102 12.263-20.102 24.326 0 13.66 11.113 24.774 24.773 24.774 7.335 0 13.933-3.207 18.474-8.29l117.138 55.417a25.509 25.509 0 0 0 4.538 19.268l-69.26 87.911a28.6 28.6 0 0 0-11.775-2.529c-15.873 0-28.786 12.913-28.786 28.786S288.984 508 304.857 508s28.785-12.913 28.785-28.786a28.633 28.633 0 0 0-6.02-17.586l69.259-87.909a25.5 25.5 0 0 0 9.772 1.939c14.146 0 25.653-11.508 25.653-25.653s-11.508-25.653-25.653-25.653c-7.688 0-14.593 3.404-19.298 8.779l-117.137-55.417c.195-1.251.298-2.531.298-3.836 0-10.387-6.428-19.295-15.513-22.971l3.7-38.129c8.661-1.824 15.569-8.463 17.78-16.976 31.203-3.147 61.075-12.862 86.721-28.258a7 7 0 0 0 3.397-6.001V90.2l38.697-10.369v38.141c-10.432 3.038-18.08 12.679-18.08 24.079 0 7.047 2.926 13.421 7.622 17.981l-2.189 4.704c-2.839 6.101-4.161 12.076-4.161 18.805v28.364c0 9.286 7.555 16.84 16.84 16.84h15.21c9.285 0 16.839-7.554 16.839-16.84v-28.364c0-6.73-1.322-12.706-4.16-18.805l-2.599-5.584zM304.856 494.003c-8.153 0-14.786-6.633-14.786-14.786s6.633-14.786 14.786-14.786 14.785 6.633 14.785 14.786-6.633 14.786-14.785 14.786zm101.797-155.649c6.426 0 11.653 5.228 11.653 11.653s-5.228 11.653-11.653 11.653S395 356.432 395 350.007s5.228-11.653 11.653-11.653zM88.636 61.615s-.016-.028-.016-.107c0-.081.016-.108.016-.108s.022-.022.101-.043l158.164-42.382c4.832-1.295 9.143-1.294 13.973 0l158.163 42.38c.077.021.101.043.101.043s.016.028.016.108a.248.248 0 0 1-.016.107.246.246 0 0 1-.101.044l-158.163 42.38c-4.833 1.296-9.143 1.295-13.974 0L88.737 61.658c-.078-.021-.101-.043-.101-.043zm58.568 245.78c-5.94 0-10.773-4.833-10.773-10.774s4.833-10.773 10.773-10.773 10.774 4.833 10.774 10.773-4.833 10.774-10.774 10.774zm-23.611 186.608c-8.153 0-14.786-6.633-14.786-14.786s6.633-14.786 14.786-14.786 14.786 6.633 14.786 14.786-6.633 14.786-14.786 14.786zM236.29 359.874c6.426 0 11.653 5.228 11.653 11.653s-5.228 11.653-11.653 11.653-11.653-5.228-11.653-11.653 5.228-11.653 11.653-11.653zm9.451-75.221c-5.94 0-10.773-4.833-10.773-10.774s4.833-10.774 10.773-10.774 10.774 4.833 10.774 10.774-4.833 10.774-10.774 10.774zm8.145-85.372c-5.151 0-9.343-4.191-9.343-9.343s4.191-9.343 9.343-9.343 9.344 4.191 9.344 9.343-4.191 9.343-9.344 9.343zm98.716-41.751c-22.925 13.081-49.297 21.403-76.837 24.273-3.31-8.872-11.867-15.208-21.879-15.208s-18.568 6.336-21.878 15.208c-27.54-2.87-53.913-11.192-76.838-24.273V93.952l88.106 23.608c3.619.97 7.114 1.455 10.61 1.455s6.99-.485 10.609-1.455L352.6 93.952v63.578zm59.697-26.559c6.109 0 11.08 4.971 11.08 11.081s-4.971 11.08-11.08 11.08-11.08-4.97-11.08-11.08 4.971-11.081 11.08-11.081zm11.08 80.936c0 1.54-1.3 2.84-2.839 2.84h-15.21c-1.539 0-2.84-1.3-2.84-2.84v-28.364c0-4.742.854-8.599 2.854-12.898l1.875-4.03a25.08 25.08 0 0 0 5.079.518c2.149 0 4.235-.272 6.227-.783l1.999 4.296c2 4.297 2.854 8.155 2.854 12.898v28.364zM219.47 479.482a7 7 0 0 1 .412 9.891l-12.314 13.385a6.982 6.982 0 0 1-5.153 2.261 7 7 0 0 1-5.149-11.74l12.314-13.385a7 7 0 0 1 9.891-.412zm33.894-36.836a7 7 0 0 1 .412 9.891l-11.118 12.084a6.982 6.982 0 0 1-5.153 2.261 7 7 0 0 1-5.149-11.74l11.118-12.084a6.999 6.999 0 0 1 9.891-.412zm23.188-14.862a6.982 6.982 0 0 1-5.153 2.261 6.97 6.97 0 0 1-4.737-1.849 7 7 0 0 1-.412-9.891l10.001-10.869a6.999 6.999 0 0 1 9.891-.412 7 7 0 0 1 .412 9.891l-10.001 10.869zm27.622-33.361a6.97 6.97 0 0 1-4.738-1.85 7 7 0 0 1-.41-9.891l9.078-9.865a6.999 6.999 0 0 1 9.891-.41 7 7 0 0 1 .41 9.891l-9.078 9.865a6.983 6.983 0 0 1-5.152 2.26z" fill="#000000" opacity="1" data-original="#000000" class=""></path></g></svg>