<svg xmlns="http://www.w3.org/2000/svg" version="1.1" xmlns:xlink="http://www.w3.org/1999/xlink" width="512" height="512" x="0" y="0" viewBox="0 0 500 500" style="enable-background:new 0 0 512 512" xml:space="preserve" class=""><g><path fill-rule="evenodd" d="M79.288 304.397c-7.387 2.478-14.897 2.532-21.083.377 3.691-5.388 9.779-9.806 17.16-12.23 7.387-2.478 14.897-2.532 21.083-.377-3.69 5.441-9.778 9.805-17.16 12.23zm-7.914-23.976c-13.243 4.364-23.62 13.685-27.763 24.999-1.024 2.748.005 5.873 2.478 7.543 6.153 4.041 13.75 6.088 21.756 6.088 5.07 0 10.302-.808 15.442-2.478 13.238-4.418 23.615-13.739 27.758-25.053 1.024-2.748-.011-5.873-2.484-7.489-10.049-6.627-23.95-7.974-37.187-3.61zm7.489-67.886c7.403 2.424 13.523 6.735 17.246 12.122-6.164 2.209-13.68 2.209-21.077-.215-7.403-2.37-13.523-6.735-17.247-12.069 6.164-2.209 13.675-2.209 21.078.162zm-7.743 24.083c5.038 1.617 10.162 2.425 15.129 2.425 8.125 0 15.829-2.155 22.036-6.304 2.462-1.616 3.464-4.741 2.43-7.543-4.224-11.261-14.671-20.528-27.941-24.784-13.265-4.256-27.16-2.855-37.165 3.825a6.452 6.452 0 0 0-2.43 7.597c4.224 11.261 14.671 20.528 27.941 24.784zm348.343 67.779c-7.387-2.425-13.475-6.789-17.16-12.23 6.18-2.155 13.696-2.101 21.077.377 7.387 2.425 13.469 6.843 17.16 12.23-6.18 2.155-13.696 2.101-21.077-.377zm7.915-23.976c-13.243-4.364-27.144-3.017-37.192 3.61a6.326 6.326 0 0 0-2.478 7.489c4.138 11.314 14.52 20.635 27.753 25.053 5.135 1.67 10.371 2.478 15.441 2.478 8.001 0 15.603-2.047 21.756-6.088 2.467-1.67 3.502-4.795 2.478-7.543-4.143-11.314-14.52-20.635-27.758-24.999zm-7.5-67.886c7.408-2.371 14.924-2.371 21.088-.162-3.728 5.334-9.849 9.698-17.247 12.069-7.403 2.425-14.913 2.425-21.082.215 3.729-5.388 9.849-9.698 17.241-12.122zm-29.412 20.204c6.201 4.149 13.906 6.304 22.036 6.304 4.962 0 10.091-.808 15.124-2.425 13.27-4.256 23.712-13.523 27.947-24.784a6.456 6.456 0 0 0-2.435-7.597c-10.005-6.681-23.895-8.136-37.165-3.825-13.265 4.256-23.712 13.523-27.936 24.784-1.046 2.801-.033 5.926 2.429 7.543zM172.831 87.053c4.493 6.142 6.875 13.416 6.751 19.935-6.266-1.886-12.419-6.358-16.912-12.554-4.493-6.142-6.891-13.362-6.762-19.935 6.272 1.886 12.43 6.412 16.923 12.554zm11.848 33.673h.264a6.366 6.366 0 0 0 6.148-4.687c3.222-11.584.259-25.269-7.947-36.529-8.195-11.206-20.29-18.211-32.332-18.696-2.953-.162-5.609 1.778-6.411 4.634-3.222 11.638-.253 25.269 7.952 36.529 8.194 11.26 20.284 18.265 32.326 18.749zM325.92 87.053c4.493-6.142 10.641-10.668 16.912-12.554.129 6.573-2.252 13.793-6.751 19.935-4.493 6.196-10.646 10.668-16.918 12.554-.128-6.52 2.264-13.793 6.757-19.935zm-12.112 33.673h.259c12.042-.485 24.127-7.489 32.332-18.749 8.195-11.261 11.169-24.892 7.941-36.529-.792-2.856-3.453-4.795-6.406-4.634-12.047.485-24.132 7.489-32.338 18.696-8.2 11.261-11.169 24.946-7.942 36.529a6.364 6.364 0 0 0 6.154 4.687zm113.855 276.179c-12.548 5.118-21.519 11.53-31.012 18.373-6.929 5.011-14.1 10.129-23.006 14.87-27.952 14.87-61.917 18.803-86.566 19.342 10.684-9.267 20.743-20.15 29.649-32.165 7.478-10.129 13.868-20.635 19.051-31.195 37.203-9.483 70.472-6.681 99.173 8.351a55.801 55.801 0 0 0-7.289 2.424zm-324.324 18.373c-9.488-6.843-18.453-13.254-31.007-18.373a55.766 55.766 0 0 0-7.29-2.424c28.291-14.817 61.027-17.726 97.573-8.782 5.221 10.722 11.67 21.389 19.245 31.626 8.895 12.015 18.944 22.898 29.611 32.111-24.52-.647-57.714-4.688-85.122-19.288-8.904-4.742-16.07-9.86-23.01-14.87zm128.122-34.644c-20.474-27.693-47.283-48.328-71.572-55.602-.167 25.323 11.773 57.057 32.235 84.696 11.686 15.786 25.468 29.471 39.929 39.6h30.317c-3.641-22.09-14.681-46.766-30.909-68.694zM125.122 169.271c-3.992-3.987-3.992-10.506 0-14.493 1.923-1.94 4.494-2.963 7.236-2.963 2.748 0 5.318 1.024 7.241 2.963.07.054.14.162.215.216l58.808 53.609c29.067 26.508 72.865 26.454 101.883-.108l58.441-53.501c.065-.108.135-.162.205-.216 3.992-3.987 10.485-3.987 14.477 0a10.276 10.276 0 0 1 2.979 7.22c0 2.748-1.067 5.334-2.979 7.273l-65.3 65.3c-11.169 11.153-20.883 43.911-29.595 99.89-5.652-18.803-14.148-34.751-24.746-46.281a6.436 6.436 0 0 0-4.687-2.047 6.429 6.429 0 0 0-4.693 2.047c-10.538 11.422-18.997 27.316-24.649 45.958-8.696-55.764-18.394-88.414-29.536-99.566zm124.254 2.37c-12.128 0-21.988 9.859-21.988 21.982s9.86 21.982 21.988 21.982c12.123 0 21.982-9.86 21.982-21.982s-9.86-21.982-21.982-21.982zm-7.662 201.396c-4.407-5.98-9.073-11.584-13.917-16.864 3.906-21.605 11.406-40.301 21.503-53.663 10.091 13.362 17.602 32.057 21.497 53.663-7.882 8.567-15.113 17.941-21.497 27.801a222.025 222.025 0 0 0-7.586-10.937zm64.756 36.691c20.463-27.639 32.408-59.374 32.235-84.696-29.143 8.675-61.027 36.206-82.035 71.281 8.62 15.678 14.639 31.734 17.629 47.197 11.606-9.321 22.586-20.851 32.171-33.782zm151.559-15.894c-32.887-23.868-71.83-31.303-115.886-22.251 7.457-19.45 10.657-38.577 8.847-55.279-.189-1.724-1.115-3.34-2.549-4.418-1.439-1.078-3.249-1.455-4.994-1.132-16.95 3.233-34.913 12.23-52.17 26.185 10.7-68.802 20.786-88.037 26.072-93.37l65.3-65.3c4.337-4.31 6.724-10.075 6.724-16.271 0-6.142-2.387-11.907-6.724-16.271-8.927-8.89-23.442-8.944-32.418-.054l-58.35 53.393a63.273 63.273 0 0 1-10.355 7.705 34.373 34.373 0 0 0 2.602-13.146c0-19.181-15.592-34.751-34.751-34.751-19.17 0-34.751 15.571-34.751 34.751 0 4.58.9 8.944 2.516 12.985a63.4 63.4 0 0 1-9.924-7.435l-58.705-53.555c-4.316-4.256-10.048-6.573-16.153-6.573-6.153 0-11.934 2.371-16.266 6.681-4.332 4.364-6.713 10.129-6.713 16.271 0 6.196 2.381 11.961 6.713 16.271l65.3 65.3c5.296 5.334 15.388 24.568 26.088 93.424-17.02-13.739-35.161-22.952-52.326-26.239-1.756-.323-3.567.054-5 1.132-1.428 1.078-2.355 2.694-2.554 4.418-1.794 16.594 1.363 35.613 8.734 54.956-43.426-8.567-81.857-.97-114.361 22.575a6.43 6.43 0 0 0-2.274 7.327c.937 2.64 3.518 4.364 6.341 4.256 7.828-.431 15.064.7 21.497 3.34 11.131 4.472 19.493 10.506 28.351 16.864 7.273 5.28 14.806 10.668 24.466 15.84 32.85 17.456 72.811 20.851 99.103 20.851 4.009 0 7.699-.054 10.997-.216h37.785c.399 0 .781-.054 1.164-.108v.108c3.34.108 7.074.216 11.142.216 26.287 0 66.254-3.448 99.093-20.851 9.671-5.172 17.192-10.56 24.471-15.84 8.863-6.358 17.22-12.392 28.356-16.864 6.433-2.64 13.658-3.772 21.497-3.34 2.818.108 5.393-1.617 6.341-4.256a6.452 6.452 0 0 0-2.276-7.329zM249.376 53.11c3.981 5.226 6.266 12.392 6.266 20.15 0 7.812-2.284 14.924-6.266 20.15-3.992-5.226-6.266-12.338-6.266-20.15 0-7.758 2.273-14.924 6.266-20.15zm-3.966 54.362c1.153.916 2.559 1.347 3.965 1.347 1.395 0 2.802-.431 3.965-1.347 9.434-7.489 15.064-20.258 15.064-34.212 0-13.901-5.63-26.724-15.07-34.159a6.257 6.257 0 0 0-7.925 0c-9.44 7.435-15.064 20.258-15.064 34.159.001 13.954 5.626 26.724 15.065 34.212z" clip-rule="evenodd" fill="#000000" opacity="1" data-original="#000000" class=""></path></g></svg>