<svg xmlns="http://www.w3.org/2000/svg" version="1.1" xmlns:xlink="http://www.w3.org/1999/xlink" width="512" height="512" x="0" y="0" viewBox="0 0 64 64" style="enable-background:new 0 0 512 512" xml:space="preserve" class=""><g><path d="M9 58h46a1 1 0 0 0 1-1v-3a16.94 16.94 0 0 0-5-12v-2a7 7 0 0 0-7-7h-3.88A11 11 0 0 0 43 25.83a3 3 0 0 0 1.37-4.67l.39-2.16A11 11 0 0 0 34 6H23a1 1 0 0 0-1 1 3 3 0 0 1-3 3h-.13a1 1 0 0 0-1.1 1.17l1.86 10A3 3 0 0 0 21 25.83 11 11 0 0 0 23.88 33H20a7 7 0 0 0-7 7v2a16.94 16.94 0 0 0-5 12v3a1 1 0 0 0 1 1zm13-2h-2V39.88a13.51 13.51 0 0 1 2-.58zm18 0H24V39h2.08a6 6 0 0 0 3.66 4.54L29 50.9a1 1 0 0 0 .29.81l2 2a1 1 0 0 0 1.42 0l2-2a1 1 0 0 0 .29-.81l-.74-7.36A6 6 0 0 0 37.92 39H40zm-8-14a4 4 0 0 1-4-4v-2.19c.27.1.55.2.84.29a11.08 11.08 0 0 0 6.32 0c.29-.09.57-.19.84-.29V38a4 4 0 0 1-4 4zm1 8.63-1 1-1-1 .7-6.63h.6zM44 56h-2V39.3a13.51 13.51 0 0 1 2 .58zm10-2v2h-8V40.74A15 15 0 0 1 54 54zM44 35a5 5 0 0 1 5 5v.28A16.91 16.91 0 0 0 39 37h-1v-2zM23.9 8H34a9 9 0 0 1 8.8 10.66l-.15.77c-.52-2-.94-2.43-1.65-2.43a3 3 0 0 1-2.21-1A9.3 9.3 0 0 0 32 13h-.12a8.65 8.65 0 0 0-6.6 3A3 3 0 0 1 23 17c-.71 0-1.13.42-1.65 2.43l-1.41-7.52A5 5 0 0 0 23.9 8zM23 25.56V25a1 1 0 0 0-1-1 1 1 0 0 1 0-2 1 1 0 0 0 1-.79 23.16 23.16 0 0 1 .6-2.24 5.06 5.06 0 0 0 3.22-1.72A6.63 6.63 0 0 1 31.88 15H32a7.28 7.28 0 0 1 5.32 2.39 5.06 5.06 0 0 0 3.1 1.61 21 21 0 0 1 .6 2.24A1 1 0 0 0 42 22a1 1 0 0 1 0 2 1 1 0 0 0-1 1v.56a9 9 0 1 1-18 0zM15 40a5 5 0 0 1 5-5h6v2h-1a16.91 16.91 0 0 0-10 3.28zm-5 14a15 15 0 0 1 8-13.26V56h-8z" fill="#000000" opacity="1" data-original="#000000"></path></g></svg>