<svg xmlns="http://www.w3.org/2000/svg" version="1.1" xmlns:xlink="http://www.w3.org/1999/xlink" width="512" height="512" x="0" y="0" viewBox="0 0 512.001 512.001" style="enable-background:new 0 0 512 512" xml:space="preserve" class=""><g><path d="m247.122 394.78 16.06 5.37c24.55 8.2 48.48 18.34 70.94 31.18a62.168 62.168 0 0 0 15.78 6.34M449.132 388.9c0-.01.01-.01.01-.02 7.2-16.3 7.36-35.57-1.23-52.74l-11.66-23.37M409.492 259.17c.01.01 0 .01 0 .01l26.76 53.59M339.842 293.46l-14.33-28.71" style="stroke-width:15;stroke-linecap:round;stroke-linejoin:round;stroke-miterlimit:10;" fill="none" stroke="#ca203e" stroke-width="15" stroke-linecap="round" stroke-linejoin="round" stroke-miterlimit="10" data-original="#ca203e" class=""></path><path d="m428.142 476.13 46.35-23.14c12.99-6.48 18.27-22.28 11.78-35.27l-7.48-15c-5.58-11.16-18.01-16.63-29.65-13.84-1.91.47-3.8 1.15-5.63 2.06l-93.61 46.73-4.01 2c-12.99 6.49-18.27 22.28-11.78 35.28l7.48 14.99c6.49 13 22.29 18.27 35.28 11.79l21.17-10.57M405.752 133.65c.98 5.61 1.18 11.33.6 17-2.65 25.74-2.23 51.72.21 77.49l2.88 30.31c.02.24.04.48.05.72.01.01 0 .01 0 .01.76 12.19-8.45 22.84-20.81 23.66-12.14.82-22.61-8.52-23.76-20.63l-6.38-37.42M256.588 105.279l16.639-20.126c12.235-14.814 29.927-22.472 47.751-22.476M225.302 204.02l32.01-38.7M201.572 218.46c-3.5-.46-6.91-1.88-9.83-4.29-8.26-6.83-9.42-19.07-2.59-27.33l46.6-56.35M284.472 193.39l-19.8 23.95M281.302 257.28l26.16-31.64M292.312 304.91l33.2-40.16 33.03-39.96" style="stroke-width:15;stroke-linecap:round;stroke-linejoin:round;stroke-miterlimit:10;" fill="none" stroke="#ca203e" stroke-width="15" stroke-linecap="round" stroke-linejoin="round" stroke-miterlimit="10" data-original="#ca203e" class=""></path><path d="m435.166 67.976 18.235 15.075c11.195 9.255 12.767 25.833 3.512 37.028l-10.676 12.913c-9.255 11.195-25.833 12.767-37.028 3.512l-84.089-69.52c-11.195-9.255-12.767-25.833-3.512-37.028l10.676-12.913c9.255-11.195 25.833-12.767 37.028-3.512l39.928 33.01M132.998 286.161l-.84-36.671c-.279-12.162-10.055-22.23-22.224-22.277-12.633-.063-22.734 10.305-22.446 22.847l.699 30.439c.594 25.873-.85 51.82-5.329 77.3a61.967 61.967 0 0 0-.623 17.003M251.572 390.12l-4.45 4.66-36.17 37.88c-13.26 13.9-31.46 20.27-49.24 19M251.572 390.12l50.52-52.88c7.4-7.75 7.12-20.03-.63-27.44a19.328 19.328 0 0 0-9.15-4.89 19.15 19.15 0 0 0-4.7-.48c-4.97.12-9.89 2.13-13.59 6l-3.11 3.26-38.35 40.14M274.012 310.43l19.5-20.41c7.41-7.75 7.13-20.04-.63-27.45a19.413 19.413 0 0 0-13.85-5.37c-4.96.12-9.89 2.12-13.59 6l-50.92 53.32M135.85 287.268l73.84-77.309a19.347 19.347 0 0 1 13.592-5.999 19.347 19.347 0 0 1 13.853 5.369c6.61 6.313 7.79 16.171 3.4 23.75a19.358 19.358 0 0 1-2.77 3.696l-43.19 45.22" style="stroke-width:15;stroke-linecap:round;stroke-linejoin:round;stroke-miterlimit:10;" fill="none" stroke="#ca203e" stroke-width="15" stroke-linecap="round" stroke-linejoin="round" stroke-miterlimit="10" data-original="#ca203e" class=""></path><path d="m265.442 263.2 12.48-13.06c7.41-7.76 7.13-20.04-.63-27.45a19.39 19.39 0 0 0-13.86-5.36c-.4.01-.79.03-1.19.07-4.54.37-8.99 2.36-12.39 5.92l-9.32 9.76M48.198 438.202l-17.109-16.341c-10.504-10.032-10.886-26.68-.854-37.184l11.572-12.116c10.032-10.504 26.68-10.886 37.184-.854l78.899 75.358c10.504 10.032 10.886 26.68.854 37.184l-11.572 12.116c-10.032 10.504-26.68 10.886-37.184.854l-37.464-35.782" style="stroke-width:15;stroke-linecap:round;stroke-linejoin:round;stroke-miterlimit:10;" fill="none" stroke="#ca203e" stroke-width="15" stroke-linecap="round" stroke-linejoin="round" stroke-miterlimit="10" data-original="#ca203e" class=""></path></g></svg>