<svg id="Folder_1" data-name="Folder 1" xmlns="http://www.w3.org/2000/svg" width="1920" height="1075" viewBox="0 0 1920 1075">
  <defs>
    <style>
      .cls-1 {
        fill: none;
        stroke: #ca203e;
        stroke-width: 15px;
      }

      .cls-1, .cls-2, .cls-3 {
        fill-rule: evenodd;
      }

      .cls-2 {
        fill: #fab239;
      }
    </style>
  </defs>
  <path class="cls-1" d="M476,731s-128.5,24-161.75-35.938c0,0,21,163.5,174,163.5,166.426,0,338,11.375,442.75,141.438"/>
  <path class="cls-1" d="M392,869s-106.75,18.937-144-19-8.25,164.44,233,106,384.75,17.937,406,51"/>
  <path id="Layer_1" data-name="Layer 1" class="cls-1" d="M319,989s-47.25,41.44-92-7c0,0,17.75,115.94,201,42s384-33.563,458,22"/>
  <path class="cls-1" d="M1452.22,731s128.5,24,161.75-35.938c0,0-21,163.5-174,163.5-166.43,0-338,11.375-442.751,141.438"/>
  <path class="cls-1" d="M1536.22,869s106.75,18.937,144-19,8.25,164.44-233,106-384.75,17.937-406,51"/>
  <path id="Layer_1-2" data-name="Layer 1" class="cls-1" d="M1609.22,989s47.25,41.44,92-7c0,0-17.75,115.94-201,42s-384-33.563-458,22"/>
  <path class="cls-2" d="M567,1035v40.45H883S691,995,567,1035Z"/>
  <path id="Shape_3_copy" data-name="Shape 3 copy" class="cls-2" d="M1358,1035.24v40.77H1042S1234,994.929,1358,1035.24Z"/>
  <path id="Color_Fill_1" data-name="Color Fill 1" class="cls-2" d="M195,883,561,729s54,56.25,198,56S960,903,960,903s47-101.75,217-114,178-47.75,202-62c0,0-120.51-274-419-274S561,729,561,729Z"/>
  <path id="SBC_EDUCATIONAL_WELFARE_SERVICES" data-name="SBC EDUCATIONAL &amp; WELFARE SERVICES" class="cls-3" d="M113.962,1045.09c2.655-5.35,4.943-15.91,4.478-26.49-1.118-25.409-14.83-36.779-30.352-36.1-13.049.574-21.227,8.641-26.552,25.256-4.007,12.15-6.387,17.48-12.294,17.74-4.808.21-9.122-4-9.521-13.07a44.061,44.061,0,0,1,3.544-19.559l-17.1-3.927a56.8,56.8,0,0,0-3.631,23.836c0.961,21.84,13.629,34.49,29.425,33.8,13.461-.6,21.536-11,26.217-26.62,3.494-11.3,6.6-15.84,12.366-16.09,6.044-.27,10.251,4.64,10.673,14.25a53.474,53.474,0,0,1-4.747,23.47Zm1.186-86.95a162.244,162.244,0,0,0,2.687-22.569c1.067-18.394-1.3-29.825-6.263-36.862A24.69,24.69,0,0,0,92.5,887.961c-11.942-.693-20.358,6.669-23.854,17.072l-0.275-.016c-3.238-10.656-10.646-15.906-18.882-16.384A20.172,20.172,0,0,0,30.725,898.7c-4.371,6.5-6.061,14.248-6.8,27.014-0.605,10.432-.427,21.6.353,27.153Zm-75.8-25.2a57.221,57.221,0,0,1-.031-8.954c0.55-9.471,4.566-14.61,11.567-14.2,6.863,0.4,11.051,6.564,10.414,17.546l-0.4,6.863Zm36.513,2.119,0.414-7.138c0.605-10.432,4.8-18.591,14.132-18.049,9.746,0.566,12.829,9.146,12.28,18.618a66.064,66.064,0,0,1-.745,8.082Zm38.508-135.814a52.344,52.344,0,0,1,.1,17.722c-3.085,18.445-16.428,27.366-34.737,24.3-20.343-3.4-28.11-17.808-25.365-34.218a45.266,45.266,0,0,1,6.295-16.793l-15.707-6.949c-2.511,3.344-6.043,11.118-7.835,21.832-4.629,27.666,9.01,52.812,40.2,58.031,26.039,4.357,48.427-8.628,53.714-40.227,1.86-11.121,1.255-20.006-.008-24.121Zm-2.653-127.337-10.482,32.45L82.91,698.444l11.116-34.412-16.355-5.283L60.088,713.18l88.189,28.488,18.175-56.263L150.1,680.121l-11.708,36.244L117.453,709.6l10.482-32.45Zm62.376-8.569a181.486,181.486,0,0,0,11.036-21.118c7.464-16.544,10.062-31.664,6.683-43.9-3.218-11.257-11.715-22.181-27.884-29.476-14.915-6.729-27.806-5.908-38.281-.075-9.818,5.376-17.394,14.478-24.632,30.521a187.086,187.086,0,0,0-9.895,26.611ZM113.428,612.9a43.565,43.565,0,0,1,3.15-8.988c7.408-16.419,21.32-22.512,38.81-14.469,20.179,9.1,24.615,24.682,16.686,41.922a38.565,38.565,0,0,1-3.373,6.473Zm26.409-92.128L184,547.646c25.254,15.37,43.444,10.344,55.6-9.625,12.582-20.673,8.459-40.084-15.973-54.953l-44.4-27.023L168.36,473.9l45.576,27.737c13.978,8.507,17.41,17.678,11.691,27.075-5.576,9.162-15.652,10.113-29.277,1.82L150.775,502.8ZM298.961,419.182a52.347,52.347,0,0,1-8.33,15.643c-11.478,14.763-27.456,16.273-42.111,4.88-16.282-12.66-16.273-29.024-6.061-42.159a45.257,45.257,0,0,1,13.516-11.785l-10.518-13.577c-3.8,1.75-10.6,6.912-17.267,15.488-17.216,22.144-17.163,50.749,7.8,70.161,20.842,16.2,46.709,15.415,66.373-9.877,6.921-8.9,10.61-17.006,11.453-21.227Zm49.432-60.049L370.4,370.652l15.766-16.123-86.354-44.245-19.226,19.662,46.46,85.045,15.188-15.534-12.394-21.349Zm-27.646,5.853-10.214-17.679c-2.777-4.831-6.829-10.716-9.8-15.545l0.192-.2c4.894,2.862,10.963,6.488,16.049,9.154l18.1,9.617Zm86.776-28.326,16.06-13.588L375.1,265.761l19.313-16.34-11.367-13.436-54.372,46,11.367,13.435,19-16.073ZM405.15,219.944l54.168,75.2,17.07-12.3-54.168-75.2ZM485.718,165c-23.575,13.889-28.319,40.781-14.22,64.712,13.4,22.746,37.8,32.469,61.494,18.51,23.338-13.749,29.861-38.976,14.436-65.158C534.447,161.033,510.241,150.557,485.718,165Zm7.972,14.614c12.439-7.328,26.569.944,35.014,15.279,9.143,15.52,8.993,31.247-3.21,38.436-12.084,7.119-25.919.429-35.132-15.209C481.219,202.6,481.487,186.807,493.69,179.618Zm115.936,26.616L598.58,180.6c-5.985-13.889-11.407-25.776-16.755-36.8l0.325-.289A344.363,344.363,0,0,0,609.873,167.2L642.2,192.2l20.2-8.706-36.675-85.1L608.054,106l10.719,24.874a343.88,343.88,0,0,0,16.932,34.774l-0.379.163a268.562,268.562,0,0,0-26.459-23.182l-31.117-23.57-22.475,9.685,36.674,85.1ZM727.462,138l13.569,20.8,21.634-6.361-53.713-80.8L682.57,79.4l-1.031,96.9,20.842-6.128L702,145.486ZM700.483,129.6l-0.27-20.415c-0.062-5.572-.721-12.687-0.953-18.351l0.263-.078c2.871,4.889,6.393,11.019,9.528,15.83l11.087,17.234Zm83.154,18.733,56.955-10.355-3.149-17.317-36.256,6.592-13.43-73.865-20.7,3.763Zm197.984-19.307c-5.957-6.012-11.5-11.9-16.895-17.655,7.972-9.453,12.289-21.549,14.346-35.641l-18.691.556c-0.992,8.283-3.625,16.89-7.164,22.773-4.674-4.538-10.509-11.1-16.045-16.855l0.121-.554c12.589-6.84,17.85-14.975,17.572-24.32-0.4-13.331-11.5-21.392-25.8-20.967-18.554.552-27.382,13.608-27.035,25.29a28.056,28.056,0,0,0,7.541,17.658l0.017,0.55c-10.419,5.812-17.167,14.817-16.8,27.048,0.384,12.919,10.677,25.956,33.079,25.289,10.994-.327,19.276-4.012,25.184-8.865,2.273,2.409,4.258,4.413,6.243,6.417ZM928.3,116.99c-9.483.282-15.593-6.277-15.826-14.111-0.18-6.047,3.137-10.135,6.9-13,7.813,8.3,15.621,16.455,21.565,22.056A18.678,18.678,0,0,1,928.3,116.99Zm0.466-67.555c5.5-.164,8.252,4.569,8.383,8.967,0.159,5.36-3.17,9.036-9.766,13.909-4.258-4.413-6.579-8.47-6.719-13.143C920.524,54.357,923.409,49.595,928.769,49.435Zm141,87.318,14.42-38.2c3.52-8.938,6.28-17.43,9.41-27.536l0.27,0.039c-0.43,10.636-.17,19.425.26,28.935l2.04,40.585,22.45,3.251,36.96-88.289-21.09-3.053-12.93,36.474c-3.48,10.61-7.07,21.065-9.91,31.074l-0.27-.04c0.11-10.4.03-20.417-.45-31.463l-1.75-39.71-22.05-3.191-13.19,36.435c-3.95,10.96-7.72,21.667-10.66,31.384l-0.27-.04c-0.16-9.47-.35-21.584-0.82-32.766l-1.46-38.834-22.18-3.211,8.5,94.868Zm159.76-22.907-32.85-9.116,5.14-18.549,34.85,9.667,4.59-16.562L1186.15,64l-24.78,89.3,56.97,15.806,4.6-16.562-36.7-10.182,5.88-21.2,32.86,9.116Zm10.83,62.792L1294.4,197.4l6.31-16.43-34.4-13.217,26.93-70.083-19.64-7.545Zm73.5,29.577,18.83,9.385,16.62-33.35,29.78,14.844,7.61-15.259-29.78-14.845,9.45-18.951,31.87,15.887,7.67-15.383-50.71-25.272Zm117.85,37.919-6.54,23.964,19.13,11.946,24.72-93.828-23.32-14.569-73.13,63.6,18.43,11.51,18.2-16.679Zm-11.64-25.752,15.08-13.763c4.13-3.747,9.01-8.966,13.09-12.9l0.23,0.146c-1.75,5.393-3.99,12.1-5.5,17.638l-5.52,19.736Zm41.37,74.452,16.27,12.9,22.63-28.556,4.96,3.929c6.59,5.4,7.75,10.358,2.52,20.947-4.94,10.652-7.91,17.945-8.35,20.932l16.81,13.323c0.82-3.912,6.08-15.188,10.3-25.171,3.47-8.133,4.51-15.2,1.07-21.264l0.25-.324c8.05,2.691,19.66,1.543,27-7.724,5.3-6.681,6.94-13.625,5.36-20.489-1.92-8.194-8.19-15.789-18.96-24.329a184.388,184.388,0,0,0-23.07-15.828Zm64.18-47.556a52.826,52.826,0,0,1,7.86,5.354c7.46,6.086,9.34,13.014,4.04,19.695-5.04,6.357-13.13,6.609-21.32.118l-6.47-5.124Zm84.46,103.143-24.43-23.783,13.42-13.8,25.92,25.222,11.99-12.318-41-39.895-64.63,66.417,42.37,41.238,11.99-12.318-27.3-26.565,15.34-15.766,24.44,23.783Zm4.61,82.588c0.91,5.9,5.13,15.849,11.61,24.223,15.57,20.122,33.33,21.507,45.62,12,10.33-7.993,12.36-19.3,7.14-35.946-3.74-12.239-4.87-17.97-.19-21.588,3.81-2.945,9.76-1.989,15.32,5.19a44.115,44.115,0,0,1,8.38,18.028l16.24-6.651a56.764,56.764,0,0,0-10.78-21.568c-13.37-17.294-31.02-20.331-43.53-10.655-10.66,8.245-11.26,21.4-6.08,36.865,3.66,11.249,3.74,16.749-.82,20.283-4.79,3.7-11.06,2.118-16.95-5.5a53.517,53.517,0,0,1-9.65-21.915Zm125.6,88.844-18.13-28.877,16.3-10.236,19.23,30.623,14.55-9.14-30.41-48.439-78.49,49.283,31.45,50.069,14.55-9.14-20.25-32.254,18.63-11.7,18.13,28.877Zm-34.14,53.592,9.19,18.619,32.67-16.122,2.8,5.672c3.65,7.706,2.58,12.681-6.68,20.011-9.02,7.516-14.83,12.835-16.5,15.347l9.49,19.236c2.41-3.185,11.99-11.128,20.08-18.341,6.61-5.868,10.58-11.812,10.06-18.763l0.37-.183c6.12,5.875,17.1,9.807,27.71,4.575,7.64-3.772,12.1-9.344,13.61-16.223,1.77-8.231-.64-17.775-6.72-30.105a184.109,184.109,0,0,0-14.08-24.18Zm78.36-15.51a51.682,51.682,0,0,1,4.82,8.2c4.13,8.692,2.86,15.757-4.78,19.529-7.28,3.589-14.7.352-19.32-9.019l-3.65-7.4Zm-24.02,140.04,97.76-2.287-7.6-20.937-41.26,2.4c-11.03.64-22.36,1.679-33.62,3.283l-0.14-.388c10.1-6.009,19.07-12.336,28.33-19.062l32.99-23.971-7.84-21.583-76.97,59.541Zm104.5,23.765-89.51,24,5.45,20.32,89.51-24Zm-47.02,131.054a52.381,52.381,0,0,1-6.09-16.643c-3.34-18.4,6.2-31.31,24.46-34.623,20.3-3.68,32.48,7.247,35.45,23.618a45.14,45.14,0,0,1-.24,17.932l17.13,1.225c1.23-4,1.93-12.507-.01-23.2-5.01-27.6-26.35-46.649-57.47-41.006-25.98,4.711-42.65,24.5-36.93,56.03,2.01,11.094,5.58,19.25,8.17,22.7Zm44.67,79.731-2.62-34,19.19-1.483,2.78,36.054,17.14-1.324-4.41-57.027-92.39,7.137,4.55,58.947,17.14-1.324-2.94-37.973,21.94-1.694,2.62,34ZM1811.71,960.6c-2.99,5.168-5.94,15.564-6.14,26.15-0.49,25.431,12.47,37.651,28.01,37.951,13.06,0.25,21.73-7.28,28.1-23.53,4.77-11.87,7.48-17.044,13.39-16.93,4.81,0.093,8.85,4.572,8.68,13.646a44.126,44.126,0,0,1-4.78,19.3l16.82,5a56.777,56.777,0,0,0,5.13-23.56c0.43-21.859-11.42-35.291-27.23-35.6-13.47-.261-22.19,9.611-27.85,24.9-4.2,11.059-7.58,15.391-13.36,15.281-6.05-.11-9.94-5.278-9.75-14.9a53.522,53.522,0,0,1,6.22-23.123Z"/>
</svg>
